<svg width="1290" height="2796" viewBox="0 0 1290 2796" fill="none" xmlns="http://www.w3.org/2000/svg">
  <defs>
    <linearGradient id="bg" x1="90" y1="40" x2="1180" y2="2700" gradientUnits="userSpaceOnUse">
      <stop stop-color="#07133E"/>
      <stop offset="1" stop-color="#041033"/>
    </linearGradient>
    <radialGradient id="glowTop" cx="0" cy="0" r="1" gradientUnits="userSpaceOnUse" gradientTransform="translate(1000 560) rotate(128) scale(620 820)">
      <stop stop-color="#7B69FF" stop-opacity="0.34"/>
      <stop offset="1" stop-color="#7B69FF" stop-opacity="0"/>
    </radialGradient>
    <radialGradient id="glowBottom" cx="0" cy="0" r="1" gradientUnits="userSpaceOnUse" gradientTransform="translate(260 2350) rotate(24) scale(560 640)">
      <stop stop-color="#FF9F2F" stop-opacity="0.22"/>
      <stop offset="1" stop-color="#FF9F2F" stop-opacity="0"/>
    </radialGradient>
    <linearGradient id="card" x1="120" y1="300" x2="1120" y2="2480" gradientUnits="userSpaceOnUse">
      <stop stop-color="#24326F" stop-opacity="0.95"/>
      <stop offset="1" stop-color="#182452" stop-opacity="0.95"/>
    </linearGradient>
    <linearGradient id="primary" x1="148" y1="0" x2="148" y2="120" gradientUnits="userSpaceOnUse">
      <stop stop-color="#FFA83D"/>
      <stop offset="1" stop-color="#F58A18"/>
    </linearGradient>
    <linearGradient id="secondary" x1="0" y1="0" x2="0" y2="120" gradientUnits="userSpaceOnUse">
      <stop stop-color="#3A4B8A"/>
      <stop offset="1" stop-color="#2A396F"/>
    </linearGradient>
    <filter id="shadow" x="0" y="0" width="1290" height="2796" filterUnits="userSpaceOnUse" color-interpolation-filters="sRGB">
      <feDropShadow dx="0" dy="24" stdDeviation="24" flood-color="#01081D" flood-opacity="0.45"/>
    </filter>
  </defs>

  <rect width="1290" height="2796" rx="54" fill="url(#bg)"/>
  <rect width="1290" height="2796" rx="54" fill="url(#glowTop)"/>
  <rect width="1290" height="2796" rx="54" fill="url(#glowBottom)"/>

  <text x="80" y="160" fill="#F7F8FF" font-size="46" font-family="'PingFang SC','Microsoft YaHei',sans-serif" font-weight="600">9:41</text>
  <g opacity="0.92">
    <rect x="1118" y="94" width="92" height="42" rx="12" stroke="#F7F8FF" stroke-width="6"/>
    <rect x="1214" y="107" width="10" height="16" rx="4" fill="#F7F8FF"/>
    <rect x="1126" y="102" width="76" height="26" rx="8" fill="#F7F8FF"/>
    <path d="M1038 124C1052 124 1064 112 1064 98V96C1064 82 1052 70 1038 70C1024 70 1012 82 1012 96V98C1012 112 1024 124 1038 124Z" fill="#F7F8FF"/>
    <path d="M949 132C968 132 984 116 984 97C984 78 968 62 949 62C930 62 914 78 914 97C914 116 930 132 949 132Z" stroke="#F7F8FF" stroke-width="8"/>
    <path d="M936 97H962" stroke="#F7F8FF" stroke-width="8" stroke-linecap="round"/>
  </g>

  <text x="80" y="300" fill="#F7F8FF" font-size="86" font-family="'PingFang SC','Microsoft YaHei',sans-serif" font-weight="700">2048</text>
  <text x="80" y="366" fill="#AAB4E6" font-size="34" font-family="'PingFang SC','Microsoft YaHei',sans-serif">滑动数字方块，合成更大的数字</text>

  <g filter="url(#shadow)">
    <rect x="60" y="430" width="1170" height="1680" rx="54" fill="url(#card)" stroke="#5A6CB4" stroke-opacity="0.42" stroke-width="2"/>
  </g>

  <rect x="130" y="520" width="160" height="56" rx="28" fill="#FF9D2F" fill-opacity="0.18"/>
  <text x="170" y="560" fill="#FFC56D" font-size="28" font-family="'PingFang SC','Microsoft YaHei',sans-serif" font-weight="600">益智</text>

  <text x="130" y="666" fill="#F7F8FF" font-size="58" font-family="'PingFang SC','Microsoft YaHei',sans-serif" font-weight="700">继续上次的冲分局</text>
  <text x="130" y="736" fill="#B5C1F1" font-size="34" font-family="'PingFang SC','Microsoft YaHei',sans-serif">上次停在 512，当前分数 12,480</text>

  <g>
    <rect x="130" y="810" width="1030" height="610" rx="42" fill="#1E2A5C" fill-opacity="0.88" stroke="#7388D7" stroke-opacity="0.3" stroke-width="2"/>
    <rect x="218" y="898" width="854" height="434" rx="36" fill="#14204A"/>
    <rect x="246" y="926" width="798" height="378" rx="30" fill="#25346A"/>

    <g opacity="0.96">
      <rect x="286" y="966" width="176" height="176" rx="28" fill="#E8A239"/>
      <rect x="494" y="966" width="176" height="176" rx="28" fill="#4C93E8"/>
      <rect x="702" y="966" width="176" height="176" rx="28" fill="#37A39D"/>
      <rect x="910" y="966" width="94" height="176" rx="28" fill="#314275"/>

      <rect x="286" y="1174" width="176" height="90" rx="28" fill="#314275"/>
      <rect x="494" y="1174" width="176" height="90" rx="28" fill="#314275"/>
      <rect x="702" y="1174" width="176" height="90" rx="28" fill="#EF6736"/>
      <rect x="910" y="1174" width="94" height="90" rx="28" fill="#314275"/>

      <text x="374" y="1085" text-anchor="middle" fill="#FFF6E9" font-size="96" font-family="'SF Pro Display','PingFang SC',sans-serif" font-weight="700">2</text>
      <text x="582" y="1085" text-anchor="middle" fill="#F6FBFF" font-size="96" font-family="'SF Pro Display','PingFang SC',sans-serif" font-weight="700">4</text>
      <text x="790" y="1085" text-anchor="middle" fill="#F4FFFC" font-size="96" font-family="'SF Pro Display','PingFang SC',sans-serif" font-weight="700">8</text>
      <text x="790" y="1242" text-anchor="middle" fill="#FFF8EF" font-size="76" font-family="'SF Pro Display','PingFang SC',sans-serif" font-weight="700">16</text>
    </g>
  </g>

  <g>
    <rect x="130" y="1496" width="260" height="176" rx="34" fill="#1D295A" stroke="#5C70BE" stroke-opacity="0.36" stroke-width="2"/>
    <text x="168" y="1550" fill="#9FB0EE" font-size="28" font-family="'PingFang SC','Microsoft YaHei',sans-serif">当前分数</text>
    <text x="168" y="1636" fill="#F7F8FF" font-size="72" font-family="'SF Pro Display','PingFang SC',sans-serif" font-weight="700">12,480</text>

    <rect x="415" y="1496" width="260" height="176" rx="34" fill="#1D295A" stroke="#5C70BE" stroke-opacity="0.36" stroke-width="2"/>
    <text x="453" y="1550" fill="#9FB0EE" font-size="28" font-family="'PingFang SC','Microsoft YaHei',sans-serif">最高方块</text>
    <text x="453" y="1636" fill="#F7F8FF" font-size="72" font-family="'SF Pro Display','PingFang SC',sans-serif" font-weight="700">512</text>

    <rect x="700" y="1496" width="260" height="176" rx="34" fill="#1D295A" stroke="#5C70BE" stroke-opacity="0.36" stroke-width="2"/>
    <text x="738" y="1550" fill="#9FB0EE" font-size="28" font-family="'PingFang SC','Microsoft YaHei',sans-serif">有效移动</text>
    <text x="738" y="1636" fill="#F7F8FF" font-size="72" font-family="'SF Pro Display','PingFang SC',sans-serif" font-weight="700">182</text>
  </g>

  <g>
    <rect x="130" y="1760" width="1030" height="120" rx="60" fill="url(#primary)"/>
    <text x="645" y="1838" text-anchor="middle" fill="#FFFFFF" font-size="46" font-family="'PingFang SC','Microsoft YaHei',sans-serif" font-weight="700">继续游戏</text>
  </g>

  <g>
    <rect x="130" y="1910" width="500" height="120" rx="60" fill="url(#secondary)" stroke="#5D71BF" stroke-opacity="0.5" stroke-width="2"/>
    <text x="380" y="1988" text-anchor="middle" fill="#E9EEFF" font-size="42" font-family="'PingFang SC','Microsoft YaHei',sans-serif" font-weight="600">开始新局</text>

    <rect x="660" y="1910" width="500" height="120" rx="60" fill="url(#secondary)" stroke="#5D71BF" stroke-opacity="0.5" stroke-width="2"/>
    <text x="910" y="1988" text-anchor="middle" fill="#E9EEFF" font-size="42" font-family="'PingFang SC','Microsoft YaHei',sans-serif" font-weight="600">查看规则</text>
  </g>

  <text x="645" y="2214" text-anchor="middle" fill="#8FA0DA" font-size="30" font-family="'PingFang SC','Microsoft YaHei',sans-serif">开始新局会覆盖当前进度，继续游戏将回到最近一次有效移动</text>

  <rect x="60" y="2518" width="1170" height="186" rx="72" fill="#111C4A" fill-opacity="0.94" stroke="#4C5FA8" stroke-opacity="0.35" stroke-width="2"/>
  <g opacity="0.72">
    <path d="M196 2618L134 2664H156V2724H236V2664H258L196 2618Z" fill="#D5DAF1"/>
    <circle cx="482" cy="2672" r="22" fill="#D5DAF1"/>
    <rect x="430" y="2620" width="44" height="44" rx="10" fill="#D5DAF1"/>
    <rect x="490" y="2620" width="44" height="44" rx="10" fill="#D5DAF1"/>
    <rect x="430" y="2680" width="44" height="44" rx="10" fill="#D5DAF1"/>
    <rect x="490" y="2680" width="44" height="44" rx="10" fill="#D5DAF1"/>
    <path d="M800 2623L824 2672L878 2680L838 2717L848 2768L800 2742L752 2768L762 2717L722 2680L776 2672L800 2623Z" fill="#FFB533"/>
    <path d="M1080 2618C1116 2618 1146 2648 1146 2684C1146 2720 1116 2750 1080 2750C1044 2750 1014 2720 1014 2684C1014 2648 1044 2618 1080 2618ZM1080 2646C1059 2646 1042 2663 1042 2684C1042 2705 1059 2722 1080 2722C1101 2722 1118 2705 1118 2684C1118 2663 1101 2646 1080 2646Z" fill="#D5DAF1"/>
  </g>
  <text x="196" y="2772" text-anchor="middle" fill="#D5DAF1" font-size="28" font-family="'PingFang SC','Microsoft YaHei',sans-serif">首页</text>
  <text x="482" y="2772" text-anchor="middle" fill="#D5DAF1" font-size="28" font-family="'PingFang SC','Microsoft YaHei',sans-serif">分类</text>
  <text x="800" y="2772" text-anchor="middle" fill="#FFB533" font-size="28" font-family="'PingFang SC','Microsoft YaHei',sans-serif">收藏</text>
  <text x="1080" y="2772" text-anchor="middle" fill="#D5DAF1" font-size="28" font-family="'PingFang SC','Microsoft YaHei',sans-serif">设置</text>
</svg>
