<svg width="1290" height="2796" viewBox="0 0 1290 2796" fill="none" xmlns="http://www.w3.org/2000/svg">
  <defs>
    <linearGradient id="bg" x1="120" y1="20" x2="1190" y2="2720" gradientUnits="userSpaceOnUse">
      <stop stop-color="#06133B"/>
      <stop offset="1" stop-color="#051031"/>
    </linearGradient>
    <radialGradient id="glow1" cx="0" cy="0" r="1" gradientUnits="userSpaceOnUse" gradientTransform="translate(1035 470) rotate(130) scale(520 760)">
      <stop stop-color="#6F63FF" stop-opacity="0.26"/>
      <stop offset="1" stop-color="#6F63FF" stop-opacity="0"/>
    </radialGradient>
    <radialGradient id="glow2" cx="0" cy="0" r="1" gradientUnits="userSpaceOnUse" gradientTransform="translate(240 2220) rotate(24) scale(420 520)">
      <stop stop-color="#F59C2A" stop-opacity="0.2"/>
      <stop offset="1" stop-color="#F59C2A" stop-opacity="0"/>
    </radialGradient>
    <linearGradient id="panel" x1="90" y1="280" x2="1160" y2="2480" gradientUnits="userSpaceOnUse">
      <stop stop-color="#1F2D64" stop-opacity="0.96"/>
      <stop offset="1" stop-color="#15224D" stop-opacity="0.96"/>
    </linearGradient>
    <linearGradient id="scoreCard" x1="0" y1="0" x2="0" y2="180" gradientUnits="userSpaceOnUse">
      <stop stop-color="#31437C"/>
      <stop offset="1" stop-color="#24325D"/>
    </linearGradient>
    <linearGradient id="orange" x1="0" y1="0" x2="0" y2="120" gradientUnits="userSpaceOnUse">
      <stop stop-color="#FFA63C"/>
      <stop offset="1" stop-color="#F38A1A"/>
    </linearGradient>
    <filter id="softShadow" x="0" y="0" width="1290" height="2796" filterUnits="userSpaceOnUse" color-interpolation-filters="sRGB">
      <feDropShadow dx="0" dy="20" stdDeviation="22" flood-color="#01081D" flood-opacity="0.42"/>
    </filter>
  </defs>

  <rect width="1290" height="2796" rx="54" fill="url(#bg)"/>
  <rect width="1290" height="2796" rx="54" fill="url(#glow1)"/>
  <rect width="1290" height="2796" rx="54" fill="url(#glow2)"/>

  <text x="80" y="160" fill="#F7F8FF" font-size="46" font-family="'PingFang SC','Microsoft YaHei',sans-serif" font-weight="600">9:41</text>
  <g opacity="0.92">
    <rect x="1118" y="94" width="92" height="42" rx="12" stroke="#F7F8FF" stroke-width="6"/>
    <rect x="1214" y="107" width="10" height="16" rx="4" fill="#F7F8FF"/>
    <rect x="1126" y="102" width="76" height="26" rx="8" fill="#F7F8FF"/>
  </g>

  <g opacity="0.95">
    <circle cx="126" cy="306" r="40" fill="#202F66"/>
    <path d="M142 306H110M110 306L126 290M110 306L126 322" stroke="#F2F4FF" stroke-width="7" stroke-linecap="round" stroke-linejoin="round"/>
  </g>
  <text x="190" y="324" fill="#F7F8FF" font-size="72" font-family="'PingFang SC','Microsoft YaHei',sans-serif" font-weight="700">2048</text>
  <text x="190" y="382" fill="#98A7E4" font-size="30" font-family="'PingFang SC','Microsoft YaHei',sans-serif">经典模式 · 可恢复进度</text>

  <g>
    <rect x="930" y="262" width="124" height="88" rx="26" fill="#233162" stroke="#5A6CB2" stroke-opacity="0.45" stroke-width="2"/>
    <path d="M990 286H996C1011 286 1023 298 1023 313V318C1023 333 1011 345 996 345H990" stroke="#F3F6FF" stroke-width="7" stroke-linecap="round"/>
    <path d="M990 285L972 302M990 345L972 328" stroke="#F3F6FF" stroke-width="7" stroke-linecap="round" stroke-linejoin="round"/>
    <rect x="1082" y="262" width="124" height="88" rx="26" fill="#233162" stroke="#5A6CB2" stroke-opacity="0.45" stroke-width="2"/>
    <path d="M1118 290H1170M1144 290V330M1118 330H1170" stroke="#F3F6FF" stroke-width="7" stroke-linecap="round"/>
  </g>

  <g filter="url(#softShadow)">
    <rect x="60" y="452" width="1170" height="2140" rx="54" fill="url(#panel)" stroke="#5A6CB4" stroke-opacity="0.4" stroke-width="2"/>
  </g>

  <g>
    <rect x="120" y="530" width="310" height="184" rx="34" fill="url(#scoreCard)" stroke="#6C80D2" stroke-opacity="0.4" stroke-width="2"/>
    <text x="162" y="590" fill="#9DB0EF" font-size="28" font-family="'PingFang SC','Microsoft YaHei',sans-serif">当前分数</text>
    <text x="162" y="680" fill="#F7F8FF" font-size="84" font-family="'SF Pro Display','PingFang SC',sans-serif" font-weight="700">12,480</text>

    <rect x="490" y="530" width="310" height="184" rx="34" fill="url(#scoreCard)" stroke="#6C80D2" stroke-opacity="0.4" stroke-width="2"/>
    <text x="532" y="590" fill="#9DB0EF" font-size="28" font-family="'PingFang SC','Microsoft YaHei',sans-serif">历史最高</text>
    <text x="532" y="680" fill="#F7F8FF" font-size="84" font-family="'SF Pro Display','PingFang SC',sans-serif" font-weight="700">18,920</text>

    <rect x="860" y="530" width="310" height="184" rx="34" fill="url(#scoreCard)" stroke="#6C80D2" stroke-opacity="0.4" stroke-width="2"/>
    <text x="902" y="590" fill="#9DB0EF" font-size="28" font-family="'PingFang SC','Microsoft YaHei',sans-serif">最高方块</text>
    <text x="902" y="680" fill="#F7F8FF" font-size="84" font-family="'SF Pro Display','PingFang SC',sans-serif" font-weight="700">512</text>
  </g>

  <g>
    <rect x="120" y="782" width="1050" height="1050" rx="46" fill="#15214A" stroke="#7388D7" stroke-opacity="0.22" stroke-width="2"/>
    <rect x="160" y="822" width="970" height="970" rx="38" fill="#26376C"/>
    <g fill="#314275">
      <rect x="198" y="860" width="205" height="205" rx="28"/>
      <rect x="442" y="860" width="205" height="205" rx="28"/>
      <rect x="686" y="860" width="205" height="205" rx="28"/>
      <rect x="930" y="860" width="162" height="205" rx="28"/>

      <rect x="198" y="1104" width="205" height="205" rx="28"/>
      <rect x="442" y="1104" width="205" height="205" rx="28"/>
      <rect x="686" y="1104" width="205" height="205" rx="28"/>
      <rect x="930" y="1104" width="162" height="205" rx="28"/>

      <rect x="198" y="1348" width="205" height="205" rx="28"/>
      <rect x="442" y="1348" width="205" height="205" rx="28"/>
      <rect x="686" y="1348" width="205" height="205" rx="28"/>
      <rect x="930" y="1348" width="162" height="205" rx="28"/>

      <rect x="198" y="1592" width="205" height="162" rx="28"/>
      <rect x="442" y="1592" width="205" height="162" rx="28"/>
      <rect x="686" y="1592" width="205" height="162" rx="28"/>
      <rect x="930" y="1592" width="162" height="162" rx="28"/>
    </g>

    <g>
      <rect x="198" y="860" width="205" height="205" rx="28" fill="#E6A137"/>
      <text x="300.5" y="986" text-anchor="middle" fill="#FFF7EE" font-size="110" font-family="'SF Pro Display','PingFang SC',sans-serif" font-weight="700">2</text>

      <rect x="442" y="860" width="205" height="205" rx="28" fill="#4A92E6"/>
      <text x="544.5" y="986" text-anchor="middle" fill="#F5FAFF" font-size="110" font-family="'SF Pro Display','PingFang SC',sans-serif" font-weight="700">4</text>

      <rect x="686" y="860" width="205" height="205" rx="28" fill="#37A29B"/>
      <text x="788.5" y="986" text-anchor="middle" fill="#F5FFFE" font-size="110" font-family="'SF Pro Display','PingFang SC',sans-serif" font-weight="700">8</text>

      <rect x="198" y="1104" width="205" height="205" rx="28" fill="#EF6736"/>
      <text x="300.5" y="1230" text-anchor="middle" fill="#FFF9F3" font-size="94" font-family="'SF Pro Display','PingFang SC',sans-serif" font-weight="700">16</text>

      <rect x="442" y="1104" width="205" height="205" rx="28" fill="#D85B3D"/>
      <text x="544.5" y="1230" text-anchor="middle" fill="#FFF8F1" font-size="94" font-family="'SF Pro Display','PingFang SC',sans-serif" font-weight="700">32</text>

      <rect x="686" y="1104" width="205" height="205" rx="28" fill="#C88634"/>
      <text x="788.5" y="1230" text-anchor="middle" fill="#FFF8EB" font-size="94" font-family="'SF Pro Display','PingFang SC',sans-serif" font-weight="700">64</text>

      <rect x="930" y="1104" width="162" height="205" rx="28" fill="#4A92E6"/>
      <text x="1011" y="1230" text-anchor="middle" fill="#F5FAFF" font-size="92" font-family="'SF Pro Display','PingFang SC',sans-serif" font-weight="700">4</text>

      <rect x="198" y="1348" width="205" height="205" rx="28" fill="#37A29B"/>
      <text x="300.5" y="1474" text-anchor="middle" fill="#F5FFFE" font-size="110" font-family="'SF Pro Display','PingFang SC',sans-serif" font-weight="700">8</text>

      <rect x="442" y="1348" width="205" height="205" rx="28" fill="#EF6736"/>
      <text x="544.5" y="1474" text-anchor="middle" fill="#FFF9F3" font-size="94" font-family="'SF Pro Display','PingFang SC',sans-serif" font-weight="700">16</text>

      <rect x="686" y="1348" width="205" height="205" rx="28" fill="#D85B3D"/>
      <text x="788.5" y="1474" text-anchor="middle" fill="#FFF8F1" font-size="94" font-family="'SF Pro Display','PingFang SC',sans-serif" font-weight="700">32</text>

      <rect x="198" y="1592" width="205" height="162" rx="28" fill="#C88634"/>
      <text x="300.5" y="1696" text-anchor="middle" fill="#FFF8EB" font-size="84" font-family="'SF Pro Display','PingFang SC',sans-serif" font-weight="700">64</text>

      <rect x="442" y="1592" width="205" height="162" rx="28" fill="#E5C26A"/>
      <text x="544.5" y="1696" text-anchor="middle" fill="#FFFDF5" font-size="74" font-family="'SF Pro Display','PingFang SC',sans-serif" font-weight="700">128</text>

      <rect x="686" y="1592" width="205" height="162" rx="28" fill="#F0D27B"/>
      <text x="788.5" y="1696" text-anchor="middle" fill="#FFFDF8" font-size="74" font-family="'SF Pro Display','PingFang SC',sans-serif" font-weight="700">256</text>

      <rect x="930" y="1592" width="162" height="162" rx="28" fill="#F4B44B"/>
      <text x="1011" y="1696" text-anchor="middle" fill="#FFFDF8" font-size="70" font-family="'SF Pro Display','PingFang SC',sans-serif" font-weight="700">512</text>
    </g>
  </g>

  <g>
    <rect x="120" y="1888" width="330" height="120" rx="60" fill="url(#orange)"/>
    <text x="285" y="1966" text-anchor="middle" fill="#FFFFFF" font-size="42" font-family="'PingFang SC','Microsoft YaHei',sans-serif" font-weight="700">重新开始</text>

    <rect x="480" y="1888" width="330" height="120" rx="60" fill="#253366" stroke="#6174C2" stroke-opacity="0.45" stroke-width="2"/>
    <text x="645" y="1966" text-anchor="middle" fill="#EEF2FF" font-size="42" font-family="'PingFang SC','Microsoft YaHei',sans-serif" font-weight="600">查看规则</text>

    <rect x="840" y="1888" width="330" height="120" rx="60" fill="#253366" stroke="#6174C2" stroke-opacity="0.45" stroke-width="2"/>
    <text x="1005" y="1966" text-anchor="middle" fill="#EEF2FF" font-size="42" font-family="'PingFang SC','Microsoft YaHei',sans-serif" font-weight="600">返回大厅</text>
  </g>

  <g>
    <rect x="120" y="2066" width="1050" height="188" rx="36" fill="#182454" stroke="#5C70BE" stroke-opacity="0.32" stroke-width="2"/>
    <text x="170" y="2140" fill="#FFC56D" font-size="28" font-family="'PingFang SC','Microsoft YaHei',sans-serif" font-weight="600">操作提示</text>
    <text x="170" y="2212" fill="#EEF2FF" font-size="38" font-family="'PingFang SC','Microsoft YaHei',sans-serif" font-weight="600">向上滑动还有合并空间，目标先把 256 与 256 对齐</text>
  </g>

  <g opacity="0.82">
    <circle cx="645" cy="2398" r="42" fill="#1E2D62"/>
    <path d="M645 2368V2428M615 2398H675" stroke="#FFC56D" stroke-width="10" stroke-linecap="round"/>
    <text x="645" y="2502" text-anchor="middle" fill="#9BACDF" font-size="32" font-family="'PingFang SC','Microsoft YaHei',sans-serif">达成 2048 后仍可继续冲高分</text>
  </g>
</svg>
