<svg width="1290" height="2796" viewBox="0 0 1290 2796" fill="none" xmlns="http://www.w3.org/2000/svg">
  <defs>
    <linearGradient id="bg" x1="120" y1="0" x2="1180" y2="2796" gradientUnits="userSpaceOnUse">
      <stop stop-color="#06133B"/>
      <stop offset="1" stop-color="#051031"/>
    </linearGradient>
    <linearGradient id="board" x1="160" y1="760" x2="1100" y2="1790" gradientUnits="userSpaceOnUse">
      <stop stop-color="#23356D"/>
      <stop offset="1" stop-color="#17244D"/>
    </linearGradient>
    <linearGradient id="gold" x1="0" y1="0" x2="0" y2="150" gradientUnits="userSpaceOnUse">
      <stop stop-color="#FFD56B"/>
      <stop offset="1" stop-color="#F4A729"/>
    </linearGradient>
    <linearGradient id="primary" x1="0" y1="0" x2="0" y2="120" gradientUnits="userSpaceOnUse">
      <stop stop-color="#FFA63C"/>
      <stop offset="1" stop-color="#F38A1A"/>
    </linearGradient>
    <filter id="blurBoard" x="60" y="420" width="1170" height="1940" filterUnits="userSpaceOnUse" color-interpolation-filters="sRGB">
      <feGaussianBlur stdDeviation="8"/>
    </filter>
    <filter id="shadow" x="0" y="0" width="1290" height="2796" filterUnits="userSpaceOnUse" color-interpolation-filters="sRGB">
      <feDropShadow dx="0" dy="28" stdDeviation="30" flood-color="#01081D" flood-opacity="0.5"/>
    </filter>
  </defs>

  <rect width="1290" height="2796" rx="54" fill="url(#bg)"/>

  <g filter="url(#blurBoard)" opacity="0.6">
    <rect x="60" y="450" width="1170" height="1900" rx="54" fill="url(#board)"/>
    <rect x="150" y="760" width="990" height="990" rx="42" fill="#24356C"/>
    <rect x="190" y="800" width="215" height="215" rx="28" fill="#314275"/>
    <rect x="445" y="800" width="215" height="215" rx="28" fill="#314275"/>
    <rect x="700" y="800" width="215" height="215" rx="28" fill="#314275"/>
    <rect x="955" y="800" width="145" height="215" rx="28" fill="#314275"/>
    <rect x="190" y="1055" width="215" height="215" rx="28" fill="#E6A137"/>
    <rect x="445" y="1055" width="215" height="215" rx="28" fill="#4A92E6"/>
    <rect x="700" y="1055" width="215" height="215" rx="28" fill="#37A29B"/>
    <rect x="955" y="1055" width="145" height="215" rx="28" fill="#EF6736"/>
    <rect x="190" y="1310" width="215" height="215" rx="28" fill="#D85B3D"/>
    <rect x="445" y="1310" width="215" height="215" rx="28" fill="#C88634"/>
    <rect x="700" y="1310" width="215" height="215" rx="28" fill="#E5C26A"/>
    <rect x="955" y="1310" width="145" height="215" rx="28" fill="#F4B44B"/>
  </g>

  <rect width="1290" height="2796" rx="54" fill="#020816" fill-opacity="0.34"/>

  <g filter="url(#shadow)">
    <rect x="115" y="780" width="1060" height="1120" rx="56" fill="#19265A" stroke="#7D92E1" stroke-opacity="0.38" stroke-width="2"/>
  </g>

  <g>
    <circle cx="645" cy="940" r="106" fill="#2B3D76"/>
    <circle cx="645" cy="940" r="86" fill="url(#gold)"/>
    <path d="M645 858L668 914L728 919L683 957L698 1016L645 983L592 1016L607 957L562 919L622 914L645 858Z" fill="#FFF7E1"/>
  </g>

  <text x="645" y="1140" text-anchor="middle" fill="#F7F8FF" font-size="78" font-family="'PingFang SC','Microsoft YaHei',sans-serif" font-weight="700">达成 2048！</text>
  <text x="645" y="1218" text-anchor="middle" fill="#B7C4F2" font-size="36" font-family="'PingFang SC','Microsoft YaHei',sans-serif">你已经完成里程碑，可以继续挑战更高分</text>

  <g>
    <rect x="195" y="1298" width="900" height="230" rx="40" fill="#121D47"/>
    <rect x="235" y="1340" width="240" height="146" rx="28" fill="#223160"/>
    <text x="275" y="1394" fill="#97A9E4" font-size="28" font-family="'PingFang SC','Microsoft YaHei',sans-serif">当前分数</text>
    <text x="275" y="1474" fill="#F7F8FF" font-size="76" font-family="'SF Pro Display','PingFang SC',sans-serif" font-weight="700">16,384</text>

    <rect x="525" y="1340" width="240" height="146" rx="28" fill="#223160"/>
    <text x="565" y="1394" fill="#97A9E4" font-size="28" font-family="'PingFang SC','Microsoft YaHei',sans-serif">最大方块</text>
    <text x="565" y="1474" fill="#F7F8FF" font-size="76" font-family="'SF Pro Display','PingFang SC',sans-serif" font-weight="700">2048</text>

    <rect x="815" y="1340" width="240" height="146" rx="28" fill="#223160"/>
    <text x="855" y="1394" fill="#97A9E4" font-size="28" font-family="'PingFang SC','Microsoft YaHei',sans-serif">有效移动</text>
    <text x="855" y="1474" fill="#F7F8FF" font-size="76" font-family="'SF Pro Display','PingFang SC',sans-serif" font-weight="700">236</text>
  </g>

  <g>
    <rect x="195" y="1602" width="900" height="120" rx="60" fill="url(#primary)"/>
    <text x="645" y="1680" text-anchor="middle" fill="#FFFFFF" font-size="44" font-family="'PingFang SC','Microsoft YaHei',sans-serif" font-weight="700">继续挑战</text>

    <rect x="195" y="1754" width="430" height="120" rx="60" fill="#263568" stroke="#6579C7" stroke-opacity="0.44" stroke-width="2"/>
    <text x="410" y="1832" text-anchor="middle" fill="#EEF2FF" font-size="40" font-family="'PingFang SC','Microsoft YaHei',sans-serif" font-weight="600">记录结果</text>

    <rect x="665" y="1754" width="430" height="120" rx="60" fill="#263568" stroke="#6579C7" stroke-opacity="0.44" stroke-width="2"/>
    <text x="880" y="1832" text-anchor="middle" fill="#EEF2FF" font-size="40" font-family="'PingFang SC','Microsoft YaHei',sans-serif" font-weight="600">返回大厅</text>
  </g>
</svg>
